<svg width="74" height="19" viewBox="0 0 74 19" fill="none" xmlns="http://www.w3.org/2000/svg">
<path d="M0.721591 18V0.545454H7.40341C8.66477 0.545454 9.71307 0.744318 10.5483 1.14204C11.3892 1.53409 12.017 2.07102 12.4318 2.75284C12.8523 3.43466 13.0625 4.20739 13.0625 5.07102C13.0625 5.78125 12.9261 6.3892 12.6534 6.89489C12.3807 7.39489 12.0142 7.80114 11.554 8.11364C11.0938 8.42614 10.5795 8.65057 10.0114 8.78693V8.95739C10.6307 8.99148 11.2244 9.18182 11.7926 9.52841C12.3665 9.86932 12.8352 10.3523 13.1989 10.9773C13.5625 11.6023 13.7443 12.358 13.7443 13.2443C13.7443 14.1477 13.5256 14.9602 13.0881 15.6818C12.6506 16.3977 11.9915 16.9631 11.1108 17.3778C10.2301 17.7926 9.12216 18 7.78693 18H0.721591ZM3.88352 15.358H7.28409C8.43182 15.358 9.25852 15.1392 9.7642 14.7017C10.2756 14.2585 10.5312 13.6903 10.5312 12.9972C10.5312 12.4801 10.4034 12.0142 10.1477 11.5994C9.89205 11.179 9.52841 10.8494 9.05682 10.6108C8.58523 10.3665 8.02273 10.2443 7.36932 10.2443H3.88352V15.358ZM3.88352 7.96875H7.01136C7.55682 7.96875 8.0483 7.86932 8.4858 7.67045C8.9233 7.46591 9.26705 7.17898 9.51705 6.80966C9.77273 6.43466 9.90057 5.99148 9.90057 5.48011C9.90057 4.80398 9.66193 4.24716 9.18466 3.80966C8.71307 3.37216 8.01136 3.15341 7.07955 3.15341H3.88352V7.96875ZM21.9141 18.2557C20.6016 18.2557 19.4681 17.983 18.5136 17.4375C17.5647 16.8864 16.8346 16.108 16.3232 15.1023C15.8118 14.0909 15.5562 12.9006 15.5562 11.5312C15.5562 10.1847 15.8118 9.00284 16.3232 7.9858C16.8403 6.96307 17.5618 6.16761 18.488 5.59943C19.4141 5.02557 20.5022 4.73864 21.7522 4.73864C22.559 4.73864 23.3204 4.86932 24.0363 5.13068C24.7579 5.38636 25.3942 5.78409 25.9454 6.32386C26.5022 6.86364 26.9397 7.55114 27.2579 8.38636C27.5761 9.21591 27.7351 10.2045 27.7351 11.3523V12.2983H17.005V10.2188H24.7778C24.7721 9.62784 24.6442 9.10227 24.3942 8.64205C24.1442 8.17614 23.7948 7.80966 23.3459 7.54261C22.9028 7.27557 22.3857 7.14205 21.7948 7.14205C21.1641 7.14205 20.6101 7.29545 20.1329 7.60227C19.6556 7.90341 19.2834 8.30114 19.0164 8.79545C18.755 9.28409 18.6215 9.82102 18.6158 10.4062V12.2216C18.6158 12.983 18.755 13.6364 19.0334 14.1818C19.3118 14.7216 19.7011 15.1364 20.2011 15.4261C20.7011 15.7102 21.2863 15.8523 21.9567 15.8523C22.4056 15.8523 22.8118 15.7898 23.1755 15.6648C23.5391 15.5341 23.8545 15.3438 24.1215 15.0938C24.3886 14.8438 24.5903 14.5341 24.7266 14.1648L27.6073 14.4886C27.4255 15.25 27.0789 15.9148 26.5675 16.483C26.0618 17.0455 25.4141 17.483 24.6243 17.7955C23.8346 18.1023 22.9312 18.2557 21.9141 18.2557ZM36.6422 4.90909V7.29545H29.1166V4.90909H36.6422ZM30.9745 1.77273H34.0598V14.0625C34.0598 14.4773 34.1223 14.7955 34.2473 15.017C34.378 15.233 34.5484 15.3807 34.7586 15.4602C34.9689 15.5398 35.2018 15.5795 35.4575 15.5795C35.6507 15.5795 35.8268 15.5653 35.9859 15.5369C36.1507 15.5085 36.2757 15.483 36.3609 15.4602L36.8808 17.8722C36.716 17.929 36.4802 17.9915 36.1734 18.0597C35.8723 18.1278 35.503 18.1676 35.0655 18.179C34.2927 18.2017 33.5967 18.0852 32.9774 17.8295C32.3581 17.5682 31.8666 17.1648 31.503 16.6193C31.145 16.0739 30.9689 15.392 30.9745 14.5739V1.77273ZM42.7495 18.2642C41.9199 18.2642 41.1728 18.1165 40.508 17.821C39.8489 17.5199 39.3262 17.0767 38.9398 16.4915C38.5591 15.9062 38.3688 15.1847 38.3688 14.3267C38.3688 13.5881 38.5051 12.9773 38.7779 12.4943C39.0506 12.0114 39.4228 11.625 39.8943 11.3352C40.3659 11.0455 40.8972 10.8267 41.4881 10.679C42.0847 10.5256 42.7012 10.4148 43.3375 10.3466C44.1046 10.267 44.7267 10.196 45.204 10.1335C45.6813 10.0653 46.0279 9.96307 46.2438 9.8267C46.4654 9.68466 46.5762 9.46591 46.5762 9.17045V9.11932C46.5762 8.47727 46.3858 7.98011 46.0051 7.62784C45.6245 7.27557 45.0762 7.09943 44.3603 7.09943C43.6046 7.09943 43.0051 7.2642 42.562 7.59375C42.1245 7.9233 41.829 8.3125 41.6756 8.76136L38.7949 8.35227C39.0222 7.55682 39.3972 6.89205 39.9199 6.35795C40.4426 5.81818 41.0818 5.41477 41.8375 5.14773C42.5932 4.875 43.4284 4.73864 44.3432 4.73864C44.9739 4.73864 45.6017 4.8125 46.2267 4.96023C46.8517 5.10795 47.4228 5.35227 47.9398 5.69318C48.4568 6.02841 48.8716 6.4858 49.1841 7.06534C49.5023 7.64489 49.6614 8.36932 49.6614 9.23864V18H46.6955V16.2017H46.5932C46.4057 16.5653 46.1415 16.9062 45.8006 17.2244C45.4654 17.5369 45.0421 17.7898 44.5307 17.983C44.025 18.1705 43.4313 18.2642 42.7495 18.2642ZM43.5506 15.9972C44.1699 15.9972 44.7068 15.875 45.1614 15.6307C45.6159 15.3807 45.9654 15.0511 46.2097 14.642C46.4597 14.233 46.5847 13.7869 46.5847 13.304V11.7614C46.4881 11.8409 46.3233 11.9148 46.0904 11.983C45.8631 12.0511 45.6074 12.1108 45.3233 12.1619C45.0392 12.2131 44.758 12.2585 44.4796 12.2983C44.2012 12.3381 43.9597 12.3722 43.7551 12.4006C43.2949 12.4631 42.883 12.5653 42.5193 12.7074C42.1557 12.8494 41.8688 13.0483 41.6586 13.304C41.4483 13.554 41.3432 13.8778 41.3432 14.2756C41.3432 14.8438 41.5506 15.2727 41.9654 15.5625C42.3801 15.8523 42.9086 15.9972 43.5506 15.9972ZM52.5237 18V4.90909H55.5151V7.09091H55.6515C55.8901 6.33523 56.2992 5.75284 56.8788 5.34375C57.464 4.92898 58.1316 4.72159 58.8816 4.72159C59.0521 4.72159 59.2424 4.73011 59.4526 4.74716C59.6686 4.75852 59.8475 4.77841 59.9896 4.80682V7.64489C59.8589 7.59943 59.6515 7.55966 59.3674 7.52557C59.089 7.4858 58.8191 7.46591 58.5578 7.46591C57.9953 7.46591 57.4896 7.58807 57.0407 7.83239C56.5975 8.07102 56.2481 8.40341 55.9924 8.82955C55.7367 9.25568 55.6089 9.74716 55.6089 10.304V18H52.5237ZM66.1182 18.2301C65.0898 18.2301 64.1693 17.9659 63.3568 17.4375C62.5443 16.9091 61.9023 16.142 61.4307 15.1364C60.9591 14.1307 60.7233 12.9091 60.7233 11.4716C60.7233 10.017 60.9619 8.78977 61.4392 7.78977C61.9222 6.78409 62.5727 6.02557 63.3909 5.5142C64.2091 4.99716 65.121 4.73864 66.1267 4.73864C66.8937 4.73864 67.5244 4.86932 68.0187 5.13068C68.5131 5.38636 68.9051 5.69602 69.1949 6.05966C69.4847 6.41761 69.7091 6.75568 69.8682 7.07386H69.996V0.545454H73.0898V18H70.0557V15.9375H69.8682C69.7091 16.2557 69.479 16.5937 69.1778 16.9517C68.8767 17.304 68.479 17.6051 67.9847 17.8551C67.4903 18.1051 66.8682 18.2301 66.1182 18.2301ZM66.979 15.6989C67.6324 15.6989 68.1892 15.5227 68.6494 15.1705C69.1097 14.8125 69.4591 14.3153 69.6977 13.679C69.9364 13.0426 70.0557 12.3011 70.0557 11.4545C70.0557 10.608 69.9364 9.87216 69.6977 9.24716C69.4648 8.62216 69.1182 8.13636 68.658 7.78977C68.2034 7.44318 67.6437 7.26989 66.979 7.26989C66.2915 7.26989 65.7176 7.44886 65.2574 7.80682C64.7972 8.16477 64.4506 8.65909 64.2176 9.28977C63.9847 9.92045 63.8682 10.642 63.8682 11.4545C63.8682 12.2727 63.9847 13.0028 64.2176 13.6449C64.4562 14.2812 64.8057 14.7841 65.2659 15.1534C65.7318 15.517 66.3028 15.6989 66.979 15.6989Z" fill="white"/>
</svg>
