<svg width="87" height="24" viewBox="0 0 87 24" fill="none" xmlns="http://www.w3.org/2000/svg">
<path d="M15.6619 7.43466H12.4744C12.3835 6.91193 12.2159 6.44886 11.9716 6.04545C11.7273 5.63636 11.4233 5.28977 11.0597 5.00568C10.696 4.72159 10.2813 4.50852 9.81534 4.36648C9.35511 4.21875 8.85795 4.14489 8.32386 4.14489C7.375 4.14489 6.53409 4.38352 5.80114 4.86079C5.06818 5.33239 4.49432 6.02557 4.07955 6.94034C3.66477 7.84943 3.45739 8.96023 3.45739 10.2727C3.45739 11.608 3.66477 12.733 4.07955 13.6477C4.5 14.5568 5.07386 15.2443 5.80114 15.7102C6.53409 16.1705 7.37216 16.4006 8.31534 16.4006C8.83807 16.4006 9.3267 16.3324 9.78125 16.196C10.2415 16.054 10.6534 15.8466 11.017 15.5739C11.3864 15.3011 11.696 14.9659 11.946 14.5682C12.2017 14.1705 12.3778 13.7159 12.4744 13.2045L15.6619 13.2216C15.5426 14.0511 15.2841 14.8295 14.8864 15.5568C14.4943 16.2841 13.9801 16.9261 13.3438 17.483C12.7074 18.0341 11.9631 18.4659 11.1108 18.7784C10.2585 19.0852 9.3125 19.2386 8.27273 19.2386C6.73864 19.2386 5.36932 18.8835 4.16477 18.1733C2.96023 17.4631 2.01136 16.4375 1.31818 15.0966C0.625 13.7557 0.278409 12.1477 0.278409 10.2727C0.278409 8.39205 0.627841 6.78409 1.3267 5.44886C2.02557 4.10795 2.97727 3.08239 4.18182 2.37216C5.38636 1.66193 6.75 1.30682 8.27273 1.30682C9.24432 1.30682 10.1477 1.44318 10.983 1.71591C11.8182 1.98864 12.5625 2.3892 13.2159 2.91761C13.8693 3.44034 14.4063 4.08239 14.8267 4.84375C15.2528 5.59943 15.5313 6.46307 15.6619 7.43466ZM23.8914 19.2557C22.613 19.2557 21.505 18.9744 20.5675 18.4119C19.63 17.8494 18.9028 17.0625 18.3857 16.0511C17.8743 15.0398 17.6187 13.858 17.6187 12.5057C17.6187 11.1534 17.8743 9.96875 18.3857 8.9517C18.9028 7.93466 19.63 7.14489 20.5675 6.58239C21.505 6.01989 22.613 5.73864 23.8914 5.73864C25.1698 5.73864 26.2778 6.01989 27.2153 6.58239C28.1528 7.14489 28.8772 7.93466 29.3886 8.9517C29.9056 9.96875 30.1641 11.1534 30.1641 12.5057C30.1641 13.858 29.9056 15.0398 29.3886 16.0511C28.8772 17.0625 28.1528 17.8494 27.2153 18.4119C26.2778 18.9744 25.1698 19.2557 23.8914 19.2557ZM23.9084 16.7841C24.6016 16.7841 25.1812 16.5937 25.6471 16.2131C26.113 15.8267 26.4596 15.3097 26.6868 14.6619C26.9198 14.0142 27.0363 13.2926 27.0363 12.4972C27.0363 11.696 26.9198 10.9716 26.6868 10.3239C26.4596 9.67045 26.113 9.15057 25.6471 8.7642C25.1812 8.37784 24.6016 8.18466 23.9084 8.18466C23.1982 8.18466 22.6073 8.37784 22.1357 8.7642C21.6698 9.15057 21.3204 9.67045 21.0874 10.3239C20.8601 10.9716 20.7465 11.696 20.7465 12.4972C20.7465 13.2926 20.8601 14.0142 21.0874 14.6619C21.3204 15.3097 21.6698 15.8267 22.1357 16.2131C22.6073 16.5937 23.1982 16.7841 23.9084 16.7841ZM37.4007 19.2301C36.3723 19.2301 35.4518 18.9659 34.6393 18.4375C33.8268 17.9091 33.1848 17.142 32.7132 16.1364C32.2416 15.1307 32.0058 13.9091 32.0058 12.4716C32.0058 11.017 32.2444 9.78977 32.7217 8.78977C33.2047 7.78409 33.8552 7.02557 34.6734 6.5142C35.4916 5.99716 36.4035 5.73864 37.4092 5.73864C38.1763 5.73864 38.8069 5.86932 39.3013 6.13068C39.7956 6.38636 40.1876 6.69602 40.4774 7.05966C40.7672 7.41761 40.9916 7.75568 41.1507 8.07386H41.2785V1.54545H44.3723V19H41.3382V16.9375H41.1507C40.9916 17.2557 40.7615 17.5937 40.4603 17.9517C40.1592 18.304 39.7615 18.6051 39.2672 18.8551C38.7728 19.1051 38.1507 19.2301 37.4007 19.2301ZM38.2615 16.6989C38.9149 16.6989 39.4717 16.5227 39.9319 16.1705C40.3922 15.8125 40.7416 15.3153 40.9802 14.679C41.2189 14.0426 41.3382 13.3011 41.3382 12.4545C41.3382 11.608 41.2189 10.8722 40.9802 10.2472C40.7473 9.62216 40.4007 9.13636 39.9405 8.78977C39.4859 8.44318 38.9263 8.26989 38.2615 8.26989C37.574 8.26989 37.0001 8.44886 36.5399 8.80682C36.0797 9.16477 35.7331 9.65909 35.5001 10.2898C35.2672 10.9205 35.1507 11.642 35.1507 12.4545C35.1507 13.2727 35.2672 14.0028 35.5001 14.6449C35.7388 15.2812 36.0882 15.7841 36.5484 16.1534C37.0143 16.517 37.5853 16.6989 38.2615 16.6989ZM47.4199 19V5.90909H50.5051V19H47.4199ZM48.9711 4.05114C48.4824 4.05114 48.062 3.8892 47.7097 3.56534C47.3574 3.23579 47.1813 2.84091 47.1813 2.38068C47.1813 1.91477 47.3574 1.51989 47.7097 1.19602C48.062 0.866477 48.4824 0.701704 48.9711 0.701704C49.4654 0.701704 49.8858 0.866477 50.2324 1.19602C50.5847 1.51989 50.7608 1.91477 50.7608 2.38068C50.7608 2.84091 50.5847 3.23579 50.2324 3.56534C49.8858 3.8892 49.4654 4.05114 48.9711 4.05114ZM53.5741 19V1.54545H56.6593V8.07386H56.7872C56.9463 7.75568 57.1707 7.41761 57.4605 7.05966C57.7502 6.69602 58.1423 6.38636 58.6366 6.13068C59.1309 5.86932 59.7616 5.73864 60.5286 5.73864C61.54 5.73864 62.4519 5.99716 63.2644 6.5142C64.0826 7.02557 64.7303 7.78409 65.2076 8.78977C65.6906 9.78977 65.932 11.017 65.932 12.4716C65.932 13.9091 65.6963 15.1307 65.2247 16.1364C64.7531 17.142 64.111 17.9091 63.2985 18.4375C62.486 18.9659 61.5656 19.2301 60.5372 19.2301C59.7872 19.2301 59.165 19.1051 58.6707 18.8551C58.1764 18.6051 57.7786 18.304 57.4775 17.9517C57.182 17.5937 56.9519 17.2557 56.7872 16.9375H56.6082V19H53.5741ZM56.5997 12.4545C56.5997 13.3011 56.719 14.0426 56.9576 14.679C57.2019 15.3153 57.5514 15.8125 58.0059 16.1705C58.4661 16.5227 59.023 16.6989 59.6764 16.6989C60.3582 16.6989 60.9292 16.517 61.3894 16.1534C61.8497 15.7841 62.1963 15.2812 62.4292 14.6449C62.6678 14.0028 62.7872 13.2727 62.7872 12.4545C62.7872 11.642 62.6707 10.9205 62.4377 10.2898C62.2048 9.65909 61.8582 9.16477 61.398 8.80682C60.9377 8.44886 60.3639 8.26989 59.6764 8.26989C59.0173 8.26989 58.4576 8.44318 57.9974 8.78977C57.5372 9.13636 57.1877 9.62216 56.9491 10.2472C56.7161 10.8722 56.5997 11.608 56.5997 12.4545ZM71.4001 1.54545V19H68.3149V1.54545H71.4001ZM76.2503 23.9091C75.8299 23.9091 75.4407 23.875 75.0827 23.8068C74.7305 23.7443 74.4492 23.6705 74.239 23.5852L74.9549 21.1818C75.4037 21.3125 75.8043 21.375 76.1566 21.3693C76.5089 21.3636 76.8185 21.2528 77.0856 21.0369C77.3583 20.8267 77.5884 20.4744 77.7759 19.9801L78.0401 19.2727L73.293 5.90909H76.5657L79.5827 15.7955H79.7191L82.7447 5.90909H86.0259L80.7844 20.5852C80.5401 21.2784 80.2162 21.8722 79.8128 22.3665C79.4094 22.8665 78.9151 23.2472 78.3299 23.5085C77.7503 23.7756 77.0572 23.9091 76.2503 23.9091Z" fill="white"/>
</svg>
