<svg width="143" height="87" viewBox="0 0 143 87" fill="none" xmlns="http://www.w3.org/2000/svg">
<path d="M114.192 54.7024C113.61 54.5693 113.041 54.3861 112.49 54.1548C112.039 53.9576 111.629 53.6769 111.282 53.3276C111.615 50.4232 111.282 47.8998 111.562 45.043C112.657 33.9612 119.626 37.4726 125.881 35.6574C129.779 34.5623 133.678 32.3126 134.66 27.7061C130.45 22.7753 125.66 18.371 120.394 14.5889C103.432 2.51918 81.2684 -2.31348 61.1284 1.03724C64.2084 6.4115 68.8553 10.7178 74.4479 13.3808C74.4479 13.3808 68.9904 13.3808 64.3124 9.8872C62.9436 10.4347 60.194 11.5179 58.8787 12.1726C64.1058 17.1974 70.9606 20.1826 78.2 20.5866C85.4393 20.9906 92.5837 18.7867 98.3375 14.3747C98.2779 14.4758 97.2364 16.0709 95.9747 22.7068C93.1775 36.8715 85.1072 35.7705 75.1205 32.2055C54.3793 24.6828 42.9642 31.652 32.5966 17.3862C29.5792 19.0883 27.7164 22.2664 27.7164 25.7302C27.7164 29.2952 29.6863 32.3126 32.5371 33.9612C34.0964 31.8901 34.7987 31.3068 37.5126 31.3068C33.3108 33.6874 32.8109 35.7705 31.0016 41.5316C28.8115 48.5009 29.7399 55.6368 19.4794 57.4996C14.0457 57.7734 14.1587 61.4514 12.1828 66.9388C9.71293 74.0747 6.42172 76.9255 0 83.6745C2.63654 86.8586 5.3802 87.2454 8.17743 86.0908C13.9385 83.6745 18.3843 76.2113 22.5504 71.3846C27.2164 66.0044 38.4113 68.3076 46.8625 63.0405C52.6772 59.4755 55.5339 54.6488 51.6892 46.4714C54.162 49.1949 55.6335 52.6794 55.8612 56.3509C65.6277 55.0833 78.6914 66.9923 90.5945 68.9682C89.4126 67.4786 88.4358 65.8372 87.6901 64.088C86.3213 60.7908 85.8809 57.7793 86.1546 55.1428C87.2497 61.6716 93.8321 70.0633 104.426 70.837C107.116 71.0513 110.08 70.7239 113.151 69.7895C116.829 68.6945 120.233 67.2661 124.292 68.0338C127.31 68.5873 130.107 70.1169 131.863 72.6999C134.499 76.5386 140.254 77.3659 142.837 72.6463C137.023 57.446 120.995 56.4581 114.192 54.7024Z" fill="white"/>
</svg>
