<svg width="200" height="24" viewBox="0 0 200 24" fill="none" xmlns="http://www.w3.org/2000/svg">
<path d="M0.954545 4.19602V1.54545H14.8807V4.19602H9.4858V19H6.34943V4.19602H0.954545ZM20.2742 11.3295V19H17.189V1.54545H20.206V8.13352H20.3594C20.6663 7.39489 21.1407 6.8125 21.7827 6.38636C22.4305 5.95455 23.2543 5.73864 24.2543 5.73864C25.1634 5.73864 25.956 5.92898 26.6322 6.30966C27.3083 6.69034 27.831 7.24716 28.2003 7.98011C28.5753 8.71307 28.7628 9.60795 28.7628 10.6648V19H25.6776V11.142C25.6776 10.2614 25.4503 9.5767 24.9958 9.08807C24.5469 8.59375 23.9163 8.34659 23.1038 8.34659C22.5583 8.34659 22.0697 8.46591 21.6378 8.70455C21.2117 8.9375 20.8765 9.27557 20.6322 9.71875C20.3935 10.1619 20.2742 10.6989 20.2742 11.3295ZM37.4632 19.2557C36.1507 19.2557 35.0172 18.983 34.0626 18.4375C33.1138 17.8864 32.3836 17.108 31.8723 16.1023C31.3609 15.0909 31.1052 13.9006 31.1052 12.5312C31.1052 11.1847 31.3609 10.0028 31.8723 8.9858C32.3893 7.96307 33.1109 7.16761 34.037 6.59943C34.9632 6.02557 36.0513 5.73864 37.3013 5.73864C38.1081 5.73864 38.8694 5.86932 39.5853 6.13068C40.3069 6.38636 40.9433 6.78409 41.4944 7.32386C42.0513 7.86364 42.4888 8.55114 42.8069 9.38636C43.1251 10.2159 43.2842 11.2045 43.2842 12.3523V13.2983H32.5541V11.2188H40.3268C40.3211 10.6278 40.1933 10.1023 39.9433 9.64205C39.6933 9.17614 39.3439 8.80966 38.895 8.54261C38.4518 8.27557 37.9348 8.14205 37.3439 8.14205C36.7132 8.14205 36.1592 8.29545 35.6819 8.60227C35.2047 8.90341 34.8325 9.30114 34.5655 9.79545C34.3041 10.2841 34.1706 10.821 34.1649 11.4062V13.2216C34.1649 13.983 34.3041 14.6364 34.5825 15.1818C34.8609 15.7216 35.2501 16.1364 35.7501 16.4261C36.2501 16.7102 36.8353 16.8523 37.5058 16.8523C37.9547 16.8523 38.3609 16.7898 38.7245 16.6648C39.0882 16.5341 39.4035 16.3438 39.6706 16.0938C39.9376 15.8438 40.1393 15.5341 40.2757 15.1648L43.1564 15.4886C42.9745 16.25 42.628 16.9148 42.1166 17.483C41.6109 18.0455 40.9632 18.483 40.1734 18.7955C39.3836 19.1023 38.4802 19.2557 37.4632 19.2557ZM48.2452 19L43.3191 1.54545H46.7196L49.8645 14.3722H50.0264L53.3844 1.54545H56.4782L59.8446 14.3807H59.998L63.1429 1.54545H66.5435L61.6174 19H58.498L55.0037 6.75284H54.8674L51.3645 19H48.2452ZM68.3596 19V5.90909H71.4448V19H68.3596ZM69.9107 4.05114C69.4221 4.05114 69.0016 3.8892 68.6494 3.56534C68.2971 3.23579 68.121 2.84091 68.121 2.38068C68.121 1.91477 68.2971 1.51989 68.6494 1.19602C69.0016 0.866477 69.4221 0.701704 69.9107 0.701704C70.4051 0.701704 70.8255 0.866477 71.1721 1.19602C71.5244 1.51989 71.7005 1.91477 71.7005 2.38068C71.7005 2.84091 71.5244 3.23579 71.1721 3.56534C70.8255 3.8892 70.4051 4.05114 69.9107 4.05114ZM79.2354 19.2301C78.207 19.2301 77.2865 18.9659 76.474 18.4375C75.6615 17.9091 75.0195 17.142 74.5479 16.1364C74.0763 15.1307 73.8405 13.9091 73.8405 12.4716C73.8405 11.017 74.0791 9.78977 74.5564 8.78977C75.0393 7.78409 75.6899 7.02557 76.5081 6.5142C77.3263 5.99716 78.2382 5.73864 79.2439 5.73864C80.0109 5.73864 80.6416 5.86932 81.1359 6.13068C81.6303 6.38636 82.0223 6.69602 82.3121 7.05966C82.6019 7.41761 82.8263 7.75568 82.9854 8.07386H83.1132V1.54545H86.207V19H83.1729V16.9375H82.9854C82.8263 17.2557 82.5962 17.5937 82.295 17.9517C81.9939 18.304 81.5962 18.6051 81.1019 18.8551C80.6075 19.1051 79.9854 19.2301 79.2354 19.2301ZM80.0962 16.6989C80.7496 16.6989 81.3064 16.5227 81.7666 16.1705C82.2268 15.8125 82.5763 15.3153 82.8149 14.679C83.0536 14.0426 83.1729 13.3011 83.1729 12.4545C83.1729 11.608 83.0536 10.8722 82.8149 10.2472C82.582 9.62216 82.2354 9.13636 81.7751 8.78977C81.3206 8.44318 80.7609 8.26989 80.0962 8.26989C79.4087 8.26989 78.8348 8.44886 78.3746 8.80682C77.9143 9.16477 77.5678 9.65909 77.3348 10.2898C77.1018 10.9205 76.9854 11.642 76.9854 12.4545C76.9854 13.2727 77.1018 14.0028 77.3348 14.6449C77.5734 15.2812 77.9229 15.7841 78.3831 16.1534C78.849 16.517 79.42 16.6989 80.0962 16.6989ZM92.3398 1.54545V19H89.2546V1.54545H92.3398ZM99.0395 19.2642C98.2099 19.2642 97.4628 19.1165 96.798 18.821C96.1389 18.5199 95.6162 18.0767 95.2298 17.4915C94.8491 16.9062 94.6588 16.1847 94.6588 15.3267C94.6588 14.5881 94.7951 13.9773 95.0679 13.4943C95.3406 13.0114 95.7128 12.625 96.1843 12.3352C96.6559 12.0455 97.1872 11.8267 97.7781 11.679C98.3747 11.5256 98.9912 11.4148 99.6275 11.3466C100.395 11.267 101.017 11.196 101.494 11.1335C101.971 11.0653 102.318 10.9631 102.534 10.8267C102.755 10.6847 102.866 10.4659 102.866 10.1705V10.1193C102.866 9.47727 102.676 8.98011 102.295 8.62784C101.914 8.27557 101.366 8.09943 100.65 8.09943C99.8946 8.09943 99.2951 8.2642 98.852 8.59375C98.4145 8.9233 98.119 9.3125 97.9656 9.76136L95.0849 9.35227C95.3122 8.55682 95.6872 7.89205 96.2099 7.35795C96.7326 6.81818 97.3718 6.41477 98.1275 6.14773C98.8832 5.875 99.7184 5.73864 100.633 5.73864C101.264 5.73864 101.892 5.8125 102.517 5.96023C103.142 6.10795 103.713 6.35227 104.23 6.69318C104.747 7.02841 105.162 7.4858 105.474 8.06534C105.792 8.64489 105.951 9.36932 105.951 10.2386V19H102.985V17.2017H102.883C102.696 17.5653 102.432 17.9062 102.091 18.2244C101.755 18.5369 101.332 18.7898 100.821 18.983C100.315 19.1705 99.7213 19.2642 99.0395 19.2642ZM99.8406 16.9972C100.46 16.9972 100.997 16.875 101.451 16.6307C101.906 16.3807 102.255 16.0511 102.5 15.642C102.75 15.233 102.875 14.7869 102.875 14.304V12.7614C102.778 12.8409 102.613 12.9148 102.38 12.983C102.153 13.0511 101.897 13.1108 101.613 13.1619C101.329 13.2131 101.048 13.2585 100.77 13.2983C100.491 13.3381 100.25 13.3722 100.045 13.4006C99.5849 13.4631 99.173 13.5653 98.8093 13.7074C98.4457 13.8494 98.1588 14.0483 97.9486 14.304C97.7383 14.554 97.6332 14.8778 97.6332 15.2756C97.6332 15.8438 97.8406 16.2727 98.2554 16.5625C98.6701 16.8523 99.1986 16.9972 99.8406 16.9972ZM108.814 19V5.90909H111.805V8.09091H111.942C112.18 7.33523 112.589 6.75284 113.169 6.34375C113.754 5.92898 114.422 5.72159 115.172 5.72159C115.342 5.72159 115.532 5.73011 115.743 5.74716C115.959 5.75852 116.138 5.77841 116.28 5.80682V8.64489C116.149 8.59943 115.942 8.55966 115.657 8.52557C115.379 8.4858 115.109 8.46591 114.848 8.46591C114.285 8.46591 113.78 8.58807 113.331 8.83239C112.888 9.07102 112.538 9.40341 112.282 9.82955C112.027 10.2557 111.899 10.7472 111.899 11.304V19H108.814ZM117.919 19V17.0398L124.669 8.5767V8.46591H118.14V5.90909H128.444V8.0142L122.018 16.3324V16.4432H128.666V19H117.919ZM143.155 7.11932C143.013 6.65909 142.817 6.24716 142.567 5.88352C142.323 5.5142 142.028 5.19886 141.681 4.9375C141.34 4.67614 140.948 4.48011 140.505 4.34943C140.062 4.21307 139.579 4.14489 139.056 4.14489C138.118 4.14489 137.283 4.38068 136.55 4.85227C135.817 5.32386 135.241 6.01704 134.82 6.93182C134.405 7.84091 134.198 8.94886 134.198 10.2557C134.198 11.5739 134.405 12.6903 134.82 13.6051C135.235 14.5199 135.812 15.2159 136.55 15.6932C137.289 16.1648 138.147 16.4006 139.124 16.4006C140.011 16.4006 140.778 16.2301 141.425 15.8892C142.079 15.5483 142.582 15.0653 142.934 14.4403C143.286 13.8097 143.462 13.071 143.462 12.2244L144.178 12.3352H139.439V9.86364H146.522V11.9602C146.522 13.4545 146.204 14.7472 145.567 15.8381C144.931 16.929 144.056 17.7699 142.942 18.3608C141.829 18.946 140.55 19.2386 139.107 19.2386C137.499 19.2386 136.087 18.8778 134.871 18.1562C133.661 17.429 132.715 16.3977 132.033 15.0625C131.357 13.7216 131.019 12.1307 131.019 10.2898C131.019 8.88068 131.218 7.62216 131.616 6.5142C132.019 5.40625 132.582 4.46591 133.303 3.69318C134.025 2.91477 134.871 2.32386 135.843 1.92045C136.814 1.51136 137.871 1.30682 139.013 1.30682C139.979 1.30682 140.88 1.44886 141.715 1.73295C142.55 2.01136 143.292 2.40909 143.939 2.92614C144.593 3.44318 145.13 4.05682 145.55 4.76704C145.971 5.47727 146.246 6.26136 146.377 7.11932H143.155ZM149.203 19V5.90909H152.195V8.09091H152.331C152.57 7.33523 152.979 6.75284 153.558 6.34375C154.143 5.92898 154.811 5.72159 155.561 5.72159C155.731 5.72159 155.922 5.73011 156.132 5.74716C156.348 5.75852 156.527 5.77841 156.669 5.80682V8.64489C156.538 8.59943 156.331 8.55966 156.047 8.52557C155.768 8.4858 155.498 8.46591 155.237 8.46591C154.675 8.46591 154.169 8.58807 153.72 8.83239C153.277 9.07102 152.927 9.40341 152.672 9.82955C152.416 10.2557 152.288 10.7472 152.288 11.304V19H149.203ZM163.65 19.2557C162.371 19.2557 161.263 18.9744 160.326 18.4119C159.388 17.8494 158.661 17.0625 158.144 16.0511C157.633 15.0398 157.377 13.858 157.377 12.5057C157.377 11.1534 157.633 9.96875 158.144 8.9517C158.661 7.93466 159.388 7.14489 160.326 6.58239C161.263 6.01989 162.371 5.73864 163.65 5.73864C164.928 5.73864 166.036 6.01989 166.974 6.58239C167.911 7.14489 168.636 7.93466 169.147 8.9517C169.664 9.96875 169.923 11.1534 169.923 12.5057C169.923 13.858 169.664 15.0398 169.147 16.0511C168.636 17.0625 167.911 17.8494 166.974 18.4119C166.036 18.9744 164.928 19.2557 163.65 19.2557ZM163.667 16.7841C164.36 16.7841 164.94 16.5937 165.406 16.2131C165.871 15.8267 166.218 15.3097 166.445 14.6619C166.678 14.0142 166.795 13.2926 166.795 12.4972C166.795 11.696 166.678 10.9716 166.445 10.3239C166.218 9.67045 165.871 9.15057 165.406 8.7642C164.94 8.37784 164.36 8.18466 163.667 8.18466C162.957 8.18466 162.366 8.37784 161.894 8.7642C161.428 9.15057 161.079 9.67045 160.846 10.3239C160.619 10.9716 160.505 11.696 160.505 12.4972C160.505 13.2926 160.619 14.0142 160.846 14.6619C161.079 15.3097 161.428 15.8267 161.894 16.2131C162.366 16.5937 162.957 16.7841 163.667 16.7841ZM180.645 13.4943V5.90909H183.73V19H180.739V16.6733H180.602C180.307 17.4062 179.821 18.0057 179.145 18.4716C178.474 18.9375 177.648 19.1705 176.665 19.1705C175.807 19.1705 175.048 18.9801 174.389 18.5994C173.736 18.2131 173.224 17.6534 172.855 16.9205C172.486 16.1818 172.301 15.2898 172.301 14.2443V5.90909H175.386V13.767C175.386 14.5966 175.614 15.2557 176.068 15.7443C176.523 16.233 177.119 16.4773 177.858 16.4773C178.313 16.4773 178.753 16.3665 179.179 16.1449C179.605 15.9233 179.955 15.5938 180.227 15.1562C180.506 14.7131 180.645 14.1591 180.645 13.4943ZM186.663 23.9091V5.90909H189.697V8.07386H189.876C190.035 7.75568 190.259 7.41761 190.549 7.05966C190.839 6.69602 191.231 6.38636 191.725 6.13068C192.22 5.86932 192.85 5.73864 193.617 5.73864C194.629 5.73864 195.541 5.99716 196.353 6.5142C197.171 7.02557 197.819 7.78409 198.296 8.78977C198.779 9.78977 199.021 11.017 199.021 12.4716C199.021 13.9091 198.785 15.1307 198.313 16.1364C197.842 17.142 197.2 17.9091 196.387 18.4375C195.575 18.9659 194.654 19.2301 193.626 19.2301C192.876 19.2301 192.254 19.1051 191.759 18.8551C191.265 18.6051 190.867 18.304 190.566 17.9517C190.271 17.5937 190.041 17.2557 189.876 16.9375H189.748V23.9091H186.663ZM189.688 12.4545C189.688 13.3011 189.808 14.0426 190.046 14.679C190.291 15.3153 190.64 15.8125 191.095 16.1705C191.555 16.5227 192.112 16.6989 192.765 16.6989C193.447 16.6989 194.018 16.517 194.478 16.1534C194.938 15.7841 195.285 15.2812 195.518 14.6449C195.756 14.0028 195.876 13.2727 195.876 12.4545C195.876 11.642 195.759 10.9205 195.526 10.2898C195.293 9.65909 194.947 9.16477 194.487 8.80682C194.026 8.44886 193.452 8.26989 192.765 8.26989C192.106 8.26989 191.546 8.44318 191.086 8.78977C190.626 9.13636 190.276 9.62216 190.038 10.2472C189.805 10.8722 189.688 11.608 189.688 12.4545Z" fill="white"/>
</svg>
